<?xml version="1.0" encoding="utf-8"?>
<!-- Generator: Adobe Illustrator 19.1.0, SVG Export Plug-In . SVG Version: 6.00 Build 0)  -->
<svg version="1.1" id="Layer_1" xmlns="http://www.w3.org/2000/svg" xmlns:xlink="http://www.w3.org/1999/xlink" x="0px" y="0px"
	 viewBox="0 0 270 35" style="enable-background:new 0 0 270 35;" xml:space="preserve">
<style type="text/css">
	.st0{fill:#FFFFFF;}
</style>
<g>
	<path class="st0" d="M21.5,8.7h-2.3C18.6,5.5,16.1,4,12.5,4c-2.5,0-6,1.5-6,4.7c0,3.3,4.2,3.8,7.1,4c4.5,0.3,9.1,1.5,9.1,6.7
		c0,4.9-3.7,7-8.6,7c-5.3,0-9.6-2.9-10.3-8H6c0.9,4,3.9,6,8,6c3.4,0,6.5-1.2,6.5-5.1c0-3.6-3.6-4.3-7.4-4.5
		c-3.7-0.2-8.8-1.5-8.8-6.3c0-4,4.2-6.6,8.1-6.6C17.2,1.9,20.6,4.1,21.5,8.7z"/>
	<path class="st0" d="M28.7,10.4H25V8.5h3.7V3.9h2v4.6H36v1.9h-5.2V22c0,1.4,1.1,2.4,2.4,2.4c0.9,0,1.8-0.5,2.2-1.3l1.8,0.9
		c-0.8,1.4-2.3,2.3-3.9,2.3c-2.5,0-4.5-2-4.5-4.5V10.4z"/>
	<path class="st0" d="M40.7,13.5c0-0.8,0.7-5.3,7.2-5.3c5.6,0,6,3.5,6,5.2v10.1c0,0.8,0.7,1.1,1.1,1.1c0.6,0,0.9-0.3,1.1-0.8
		l1.6,0.8c-0.3,0.6-1.1,1.8-2.6,1.8c-1.7,0-2.7-1.4-2.8-2.6h-0.3c-2,2.3-4.8,2.6-5.7,2.6c-1.5,0-6.5-0.3-6.5-5.5
		c0-3.6,3.4-4.8,6.1-5.4l5.9-1.2v-0.8c0-1.8-0.4-3.4-4.1-3.4c-4.3,0-5,2.6-5,3.4H40.7z M51.8,16.2l-5.1,1.1
		c-1.9,0.4-4.8,1.1-4.8,3.6c0,2.5,1.6,3.6,4.2,3.6h0.2c2.3,0,5.4-1.8,5.4-4.3V16.2z"/>
	<path class="st0" d="M60.3,26.1V8.5h2v3.9h0.3c1.4-2.4,3.6-4.2,6.5-4.2c5.6,0,5.6,4.4,5.6,5.1v12.8h-2V13.7c0-0.4,0-3.5-3.8-3.5
		c-3,0-6.5,3.1-6.5,8.3v7.7H60.3z"/>
	<path class="st0" d="M95.2,26.1h-2V23H93c-1.6,2.2-3.6,3.4-5.9,3.4c-4.4,0-7.9-4.1-7.9-9.1c0-5,3.5-9.1,7.9-9.1
		c2.3,0,4.4,1.4,5.9,3.6h0.2V2h2V26.1z M93.2,17.3c0-4.2-2.2-7.1-6-7.1c-3.3,0-5.9,3.2-5.9,7.2c0,4,2.6,7.1,5.9,7.1
		c3.7,0,5.9-2.8,6-6.9V17.3z"/>
	<path class="st0" d="M100.5,13.5c0-0.8,0.7-5.3,7.2-5.3c5.6,0,6,3.5,6,5.2v10.1c0,0.8,0.7,1.1,1.1,1.1c0.6,0,0.9-0.3,1.1-0.8
		l1.6,0.8c-0.3,0.6-1.1,1.8-2.6,1.8c-1.7,0-2.7-1.4-2.8-2.6h-0.3c-2,2.3-4.8,2.6-5.7,2.6c-1.5,0-6.5-0.3-6.5-5.5
		c0-3.6,3.4-4.8,6.1-5.4l5.9-1.2v-0.8c0-1.8-0.4-3.4-4.1-3.4c-4.3,0-5,2.6-5,3.4H100.5z M111.6,16.2l-5.1,1.1
		c-1.9,0.4-4.8,1.1-4.8,3.6c0,2.5,1.6,3.6,4.2,3.6h0.2c2.3,0,5.4-1.8,5.4-4.3V16.2z"/>
	<path class="st0" d="M120,26.1V8.5h2v4.1h0.3c1.4-2.4,3.6-4.2,6.5-4.2c0.2,0,0.5,0,0.8,0v2c-0.3-0.1-0.6-0.1-1-0.1
		c-3,0-6.5,3.1-6.5,8.3v7.4H120z"/>
	<path class="st0" d="M147.2,26.1h-2V23h-0.2c-1.6,2.2-3.6,3.4-5.9,3.4c-4.4,0-7.9-4.1-7.9-9.1c0-5,3.5-9.1,7.9-9.1
		c2.3,0,4.4,1.4,5.9,3.6h0.2V2h2V26.1z M145.1,17.3c0-4.2-2.2-7.1-6-7.1c-3.3,0-5.9,3.2-5.9,7.2c0,4,2.6,7.1,5.9,7.1
		c3.7,0,5.9-2.8,6-6.9V17.3z"/>
	<path class="st0" d="M162.5,24.2h13v2h-15.1V2.2h2.1V24.2z"/>
	<path class="st0" d="M179.7,2.3c0.8,0,1.6,0.7,1.6,1.6c0,0.9-0.7,1.6-1.6,1.6c-0.9,0-1.6-0.7-1.6-1.6C178.2,3,178.8,2.3,179.7,2.3z
		 M178.7,8.5h2v17.6h-2V8.5z"/>
	<path class="st0" d="M186.1,2h2v9.8h0.2c1.6-2.2,3.6-3.6,5.9-3.6c4.4,0,7.9,4.1,7.9,9.1c0,5-3.5,9.1-7.9,9.1
		c-2.3,0-4.4-1.1-5.9-3.4h-0.2v3.1h-2V2z M188.1,17.6c0.1,4.1,2.3,6.9,6,6.9c3.3,0,5.9-3.2,5.9-7.1c0-4-2.6-7.2-5.9-7.2
		c-3.8,0-6,2.9-6,7.1V17.6z"/>
	<path class="st0" d="M206.7,26.1V8.5h2v4.1h0.3c1.4-2.4,3.6-4.2,6.5-4.2c0.2,0,0.5,0,0.8,0v2c-0.3-0.1-0.6-0.1-1-0.1
		c-3,0-6.5,3.1-6.5,8.3v7.4H206.7z"/>
	<path class="st0" d="M219.8,13.5c0-0.8,0.7-5.3,7.2-5.3c5.6,0,6,3.5,6,5.2v10.1c0,0.8,0.7,1.1,1.1,1.1c0.6,0,0.9-0.3,1.1-0.8
		l1.6,0.8c-0.3,0.6-1.1,1.8-2.6,1.8c-1.7,0-2.7-1.4-2.8-2.6h-0.3c-2,2.3-4.8,2.6-5.7,2.6c-1.5,0-6.5-0.3-6.5-5.5
		c0-3.6,3.4-4.8,6.1-5.4l5.9-1.2v-0.8c0-1.8-0.4-3.4-4.1-3.4c-4.3,0-5,2.6-5,3.4H219.8z M231,16.2l-5.1,1.1
		c-1.9,0.4-4.8,1.1-4.8,3.6c0,2.5,1.6,3.6,4.2,3.6h0.2c2.3,0,5.4-1.8,5.4-4.3V16.2z"/>
	<path class="st0" d="M239.4,26.1V8.5h2v4.1h0.3c1.4-2.4,3.6-4.2,6.5-4.2c0.2,0,0.5,0,0.8,0v2c-0.3-0.1-0.6-0.1-1-0.1
		c-3,0-6.5,3.1-6.5,8.3v7.4H239.4z"/>
	<path class="st0" d="M251.5,33l0.5-1.9c0.4,0.1,0.8,0.2,1.2,0.2c1.8,0,2.8-0.8,3.2-1.8l1.5-4l-7-16.9h2.2l5.7,13.7h0.5l5.2-13.7
		h2.2l-8.3,21.5c-0.7,1.8-2.3,3.2-5.1,3.2C252.7,33.2,252.1,33.2,251.5,33z"/>
</g>
</svg>
